<svg version="1.0" xmlns="http://www.w3.org/2000/svg"
 width="{{ .width }}" height="{{ .height }}" viewBox="25 25 150 150"
 preserveAspectRatio="xMidYMid meet">
<g transform="translate(0.000000,200.000000) scale(0.100000,-0.100000)"
fill="currentColor" stroke="none">
<path d="M0 1000 l0 -1000 1000 0 1000 0 0 1000 0 1000 -1000 0 -1000 0 0
-1000z m1030 678 c19 -12 80 -41 135 -64 l100 -43 3 -46 3 -45 39 0 c39 0 39
0 42 -42 l3 -43 48 -3 47 -3 0 45 0 46 46 0 45 0 -3 -42 c-3 -43 -3 -43 -45
-46 l-43 -3 0 -45 0 -45 43 3 c42 3 42 3 45 46 l3 42 45 0 44 0 0 -40 c0 -22
-6 -42 -13 -47 -9 -5 -18 -48 -25 -118 -42 -389 -201 -650 -507 -832 l-87 -52
-57 29 c-80 40 -187 118 -254 184 -201 199 -290 436 -304 813 l-6 162 24 5
c13 3 60 12 104 21 112 21 277 79 387 135 51 27 95 49 98 49 3 1 21 -9 40 -21z
m410 -63 l0 -45 -40 0 -40 0 0 45 0 45 40 0 40 0 0 -45z m188 3 c-3 -43 -3
-43 -45 -46 l-43 -3 0 45 0 46 46 0 45 0 -3 -42z"/>
<path d="M920 1308 c-109 -56 -131 -193 -43 -275 l34 -33 -19 -128 c-11 -70
-17 -130 -15 -134 2 -5 56 -8 119 -8 133 0 122 -17 95 153 l-20 119 34 29 c83
73 69 208 -28 268 -54 33 -105 36 -157 9z"/>
</g>
</svg>
